<svg xmlns="http://www.w3.org/2000/svg" viewBox="0 0 900 520" role="img" aria-label="Match Tiles gameplay screenshot">
  <rect width="900" height="520" fill="#fafafa"/>
  <rect x="0" y="0" width="900" height="92" fill="#111"/>
  <text x="42" y="58" fill="#fff" font-family="Arial, sans-serif" font-size="34" font-weight="800">Match Tiles</text>
  <text x="720" y="58" fill="#fff" font-family="Arial, sans-serif" font-size="24" font-weight="700">Moves: 8</text>
  <g transform="translate(145 132)">
    <rect x="0" y="0" width="120" height="120" rx="10" fill="#111"/>
    <text x="60" y="77" text-anchor="middle" fill="#fff" font-family="Arial, sans-serif" font-size="46" font-weight="800">A</text>
    <rect x="140" y="0" width="120" height="120" rx="10" fill="#f2f2f2" stroke="#111" stroke-width="4"/>
    <text x="200" y="78" text-anchor="middle" fill="#111" font-family="Arial, sans-serif" font-size="48" font-weight="800">?</text>
    <rect x="280" y="0" width="120" height="120" rx="10" fill="#111"/>
    <text x="340" y="77" text-anchor="middle" fill="#fff" font-family="Arial, sans-serif" font-size="46" font-weight="800">C</text>
    <rect x="420" y="0" width="120" height="120" rx="10" fill="#f2f2f2" stroke="#111" stroke-width="4"/>
    <text x="480" y="78" text-anchor="middle" fill="#111" font-family="Arial, sans-serif" font-size="48" font-weight="800">?</text>
    <rect x="560" y="0" width="120" height="120" rx="10" fill="#f2f2f2" stroke="#111" stroke-width="4"/>
    <text x="620" y="78" text-anchor="middle" fill="#111" font-family="Arial, sans-serif" font-size="48" font-weight="800">?</text>

    <rect x="0" y="140" width="120" height="120" rx="10" fill="#f2f2f2" stroke="#111" stroke-width="4"/>
    <text x="60" y="218" text-anchor="middle" fill="#111" font-family="Arial, sans-serif" font-size="48" font-weight="800">?</text>
    <rect x="140" y="140" width="120" height="120" rx="10" fill="#111"/>
    <text x="200" y="217" text-anchor="middle" fill="#fff" font-family="Arial, sans-serif" font-size="46" font-weight="800">A</text>
    <rect x="280" y="140" width="120" height="120" rx="10" fill="#f2f2f2" stroke="#111" stroke-width="4"/>
    <text x="340" y="218" text-anchor="middle" fill="#111" font-family="Arial, sans-serif" font-size="48" font-weight="800">?</text>
    <rect x="420" y="140" width="120" height="120" rx="10" fill="#f2f2f2" stroke="#111" stroke-width="4"/>
    <text x="480" y="218" text-anchor="middle" fill="#111" font-family="Arial, sans-serif" font-size="48" font-weight="800">?</text>
    <rect x="560" y="140" width="120" height="120" rx="10" fill="#111"/>
    <text x="620" y="217" text-anchor="middle" fill="#fff" font-family="Arial, sans-serif" font-size="46" font-weight="800">C</text>
  </g>
</svg>
